# xmcd
#
# Track frame offsets: 
#        150
#        12087
#        25462
#        37112
#        47487
#        56512
#        67487
#        79475
#        92612
#        106362
#
# Disc length: 1572 seconds
#
# Revision: 2
# Processed by: cddbd v1.5.1PL0 Copyright (c) Steve Scherf et al.
# Submitted via: ExactAudioCopy v0.90b4
#
DISCID=8606220a
DTITLE=Lightning Hopkins - Round Midnight
DYEAR=1900
DGENRE=Blues
TTITLE0=Lonesome Dog Blues
TTITLE1=Last Affair
TTITLE2=Ain't It Lonesome
TTITLE3=Don't Keep My Baby Long
TTITLE4=Give Me Back That Wig
TTITLE5=Santa Fe Blues
TTITLE6=Someday Baby
TTITLE7=Jake Head
TTITLE8=Tell Me
TTITLE9=Sittin' and Thinkin'
EXTD=
EXTT0=
EXTT1=
EXTT2=
EXTT3=
EXTT4=
EXTT5=
EXTT6=
EXTT7=
EXTT8=
EXTT9=
PLAYORDER=
